<svg xmlns="http://www.w3.org/2000/svg" viewBox="0 0 24 24" width="32" height="32" fill="none">
  <rect x="0.5" y="0.5" width="5.5" height="5.5" rx="0.8" fill="#1a1a1a"/>
  <rect x="2" y="2" width="2.5" height="2.5" rx="0.3" fill="white"/>
  <rect x="9.25" y="0.5" width="5.5" height="5.5" rx="0.8" fill="#1a1a1a"/>
  <rect x="10.75" y="2" width="2.5" height="2.5" rx="0.3" fill="white"/>
  <rect x="18" y="0.5" width="5.5" height="5.5" rx="0.8" fill="#1a1a1a"/>
  <rect x="19.5" y="2" width="2.5" height="2.5" rx="0.3" fill="white"/>
  <rect x="0.5" y="9.25" width="5.5" height="5.5" rx="0.8" fill="#1a1a1a"/>
  <rect x="2" y="10.75" width="2.5" height="2.5" rx="0.3" fill="white"/>
  <rect x="9.25" y="9.25" width="5.5" height="5.5" rx="0.8" fill="#1a1a1a"/>
  <rect x="10.75" y="10.75" width="2.5" height="2.5" rx="0.3" fill="white"/>
  <rect x="18" y="9.25" width="5.5" height="5.5" rx="0.8" fill="#1a1a1a"/>
  <rect x="19.5" y="10.75" width="2.5" height="2.5" rx="0.3" fill="white"/>
  <rect x="0.5" y="18" width="5.5" height="5.5" rx="0.8" fill="#1a1a1a"/>
  <rect x="2" y="19.5" width="2.5" height="2.5" rx="0.3" fill="white"/>
  <rect x="9.25" y="18" width="5.5" height="5.5" rx="0.8" fill="#1a1a1a"/>
  <rect x="10.75" y="19.5" width="2.5" height="2.5" rx="0.3" fill="white"/>
  <rect x="18" y="18" width="5.5" height="5.5" rx="0.8" fill="#1a1a1a"/>
  <rect x="19.5" y="19.5" width="2.5" height="2.5" rx="0.3" fill="white"/>
</svg>
