<svg width="628.201" height="74.901" viewBox="0 0 628.201 74.901" xmlns="http://www.w3.org/2000/svg"><g id="svgGroup" stroke-linecap="round" fill-rule="evenodd" font-size="9pt" stroke="#ffffff" stroke-width="0.25mm" fill="#ffffff" style="stroke:#ffffff;stroke-width:0.25mm;fill:#ffffff"><path d="M 68.201 25.9 L 52.101 25.9 Q 49.701 20.9 45.351 18.4 Q 41.001 15.9 35.301 15.9 Q 29.201 15.9 24.451 18.75 Q 19.701 21.6 17.051 26.8 Q 14.401 32 14.401 39 Q 14.401 45.9 17.051 51.15 Q 19.701 56.4 24.451 59.25 Q 29.201 62.1 35.301 62.1 Q 41.001 62.1 45.351 59.55 Q 49.701 57 52.101 52 L 68.201 52 Q 64.701 62.7 55.951 68.65 Q 47.201 74.6 35.401 74.6 Q 25.401 74.6 17.351 70.05 Q 9.301 65.5 4.651 57.4 Q 0.001 49.3 0.001 39 Q 0.001 28.7 4.651 20.55 Q 9.301 12.4 17.351 7.85 Q 25.401 3.3 35.401 3.3 Q 47.101 3.3 55.901 9.3 Q 64.701 15.3 68.201 25.9 Z M 414.501 4.2 L 429.401 4.2 L 403.801 74 L 386.801 74 L 361.201 4.2 L 376.201 4.2 L 395.401 59.7 L 414.501 4.2 Z M 182.201 18.6 L 196.301 18.6 L 196.301 74 L 182.201 74 L 182.201 67 Q 179.501 70.6 175.151 72.65 Q 170.801 74.7 165.701 74.7 Q 159.201 74.7 154.201 71.95 Q 149.201 69.2 146.351 63.85 Q 143.501 58.5 143.501 51.1 L 143.501 18.6 L 157.501 18.6 L 157.501 49.1 Q 157.501 55.7 160.801 59.25 Q 164.101 62.8 169.801 62.8 Q 175.601 62.8 178.901 59.25 Q 182.201 55.7 182.201 49.1 L 182.201 18.6 Z M 543.801 18.6 L 557.901 18.6 L 557.901 74 L 543.801 74 L 543.801 67 Q 541.101 70.6 536.751 72.65 Q 532.401 74.7 527.301 74.7 Q 520.801 74.7 515.801 71.95 Q 510.801 69.2 507.951 63.85 Q 505.101 58.5 505.101 51.1 L 505.101 18.6 L 519.101 18.6 L 519.101 49.1 Q 519.101 55.7 522.401 59.25 Q 525.701 62.8 531.401 62.8 Q 537.201 62.8 540.501 59.25 Q 543.801 55.7 543.801 49.1 L 543.801 18.6 Z M 247.501 56.5 L 261.601 56.5 Q 262.001 59.7 264.751 61.8 Q 267.501 63.9 271.601 63.9 Q 275.601 63.9 277.851 62.3 Q 280.101 60.7 280.101 58.2 Q 280.101 55.5 277.351 54.15 Q 274.601 52.8 268.601 51.2 Q 262.401 49.7 258.451 48.1 Q 254.501 46.5 251.651 43.2 Q 248.801 39.9 248.801 34.3 Q 248.801 29.7 251.451 25.9 Q 254.101 22.1 259.051 19.9 Q 264.001 17.7 270.701 17.7 Q 280.601 17.7 286.501 22.65 Q 292.401 27.6 293.001 36 L 279.601 36 Q 279.301 32.7 276.851 30.75 Q 274.401 28.8 270.301 28.8 Q 266.501 28.8 264.451 30.2 Q 262.401 31.6 262.401 34.1 Q 262.401 36.9 265.201 38.35 Q 268.001 39.8 273.901 41.3 Q 279.901 42.8 283.801 44.4 Q 287.701 46 290.551 49.35 Q 293.401 52.7 293.501 58.2 Q 293.501 63 290.851 66.8 Q 288.201 70.6 283.251 72.75 Q 278.301 74.9 271.701 74.9 Q 264.901 74.9 259.501 72.45 Q 254.101 70 250.951 65.8 Q 247.801 61.6 247.501 56.5 Z M 356.101 50.5 L 315.601 50.5 Q 316.101 56.5 319.801 59.9 Q 323.501 63.3 328.901 63.3 Q 336.701 63.3 340.001 56.6 L 355.101 56.6 Q 352.701 64.6 345.901 69.75 Q 339.101 74.9 329.201 74.9 Q 321.201 74.9 314.851 71.35 Q 308.501 67.8 304.951 61.3 Q 301.401 54.8 301.401 46.3 Q 301.401 37.7 304.901 31.2 Q 308.401 24.7 314.701 21.2 Q 321.001 17.7 329.201 17.7 Q 337.101 17.7 343.351 21.1 Q 349.601 24.5 353.051 30.75 Q 356.501 37 356.501 45.1 Q 356.501 48.1 356.101 50.5 Z M 477.801 26.5 L 477.801 18.6 L 491.901 18.6 L 491.901 74 L 477.801 74 L 477.801 65.9 Q 475.101 69.8 470.351 72.35 Q 465.601 74.9 459.401 74.9 Q 452.401 74.9 446.651 71.3 Q 440.901 67.7 437.551 61.15 Q 434.201 54.6 434.201 46.1 Q 434.201 37.7 437.551 31.2 Q 440.901 24.7 446.651 21.2 Q 452.401 17.7 459.501 17.7 Q 465.701 17.7 470.351 20.2 Q 475.001 22.7 477.801 26.5 Z M 628.201 30.1 L 615.801 30.1 L 615.801 56.9 Q 615.801 59.7 617.151 60.95 Q 618.501 62.2 621.701 62.2 L 628.201 62.2 L 628.201 74 L 619.401 74 Q 601.701 74 601.701 56.8 L 601.701 30.1 L 595.101 30.1 L 595.101 18.6 L 601.701 18.6 L 601.701 4.9 L 615.801 4.9 L 615.801 18.6 L 628.201 18.6 L 628.201 30.1 Z M 104.801 74.9 Q 96.801 74.9 90.401 71.35 Q 84.001 67.8 80.351 61.3 Q 76.701 54.8 76.701 46.3 Q 76.701 37.8 80.451 31.3 Q 84.201 24.8 90.701 21.25 Q 97.201 17.7 105.201 17.7 Q 113.201 17.7 119.701 21.25 Q 126.201 24.8 129.951 31.3 Q 133.701 37.8 133.701 46.3 Q 133.701 54.8 129.851 61.3 Q 126.001 67.8 119.451 71.35 Q 112.901 74.9 104.801 74.9 Z M 241.101 17.8 L 241.101 32.5 L 237.401 32.5 Q 230.801 32.5 227.451 35.6 Q 224.101 38.7 224.101 46.4 L 224.101 74 L 210.101 74 L 210.101 18.6 L 224.101 18.6 L 224.101 27.2 Q 226.801 22.8 231.151 20.3 Q 235.501 17.8 241.101 17.8 Z M 571.701 0 L 585.701 0 L 585.701 74 L 571.701 74 L 571.701 0 Z M 477.801 46.3 Q 477.801 41.2 475.801 37.55 Q 473.801 33.9 470.401 31.95 Q 467.001 30 463.101 30 Q 459.201 30 455.901 31.9 Q 452.601 33.8 450.551 37.45 Q 448.501 41.1 448.501 46.1 Q 448.501 51.1 450.551 54.85 Q 452.601 58.6 455.951 60.6 Q 459.301 62.6 463.101 62.6 Q 467.001 62.6 470.401 60.65 Q 473.801 58.7 475.801 55.05 Q 477.801 51.4 477.801 46.3 Z M 104.801 62.7 Q 108.601 62.7 111.951 60.85 Q 115.301 59 117.301 55.3 Q 119.301 51.6 119.301 46.3 Q 119.301 38.4 115.151 34.15 Q 111.001 29.9 105.001 29.9 Q 99.001 29.9 94.951 34.15 Q 90.901 38.4 90.901 46.3 Q 90.901 54.2 94.851 58.45 Q 98.801 62.7 104.801 62.7 Z M 315.701 41.1 L 342.001 41.1 Q 341.901 35.7 338.101 32.45 Q 334.301 29.2 328.801 29.2 Q 323.601 29.2 320.051 32.35 Q 316.501 35.5 315.701 41.1 Z" vector-effect="non-scaling-stroke"/></g></svg>