<svg xmlns="http://www.w3.org/2000/svg" width="24" height="24" viewBox="0 -960 960 960"><path d="M200-120q-33 0-56.5-23.5T120-200v-560q0-33 23.5-56.5T200-840h560q33 0 56.5 23.5T840-760v333q-19-11-38.5-20T760-463v-57H627v40q-21 1-41 3t-39 7v-50H413v111q-24 18-45.5 40.5T328-320H200v120h82q10 22 21.5 42t24.5 38zm0-280h133v-120H200zm0-200h560v-160H200zM640-40q-91 0-168-48T360-220q35-84 112-132t168-48 168 48 112 132q-35 84-112 132T640-40m0-80q57 0 107.5-26t82.5-74q-32-48-82.5-74T640-320t-107.5 26-82.5 74q32 48 82.5 74T640-120m0-40q-25 0-42.5-17.5T580-220t17.5-42.5T640-280t42.5 17.5T700-220t-17.5 42.5T640-160"/></svg>