<?xml version="1.0" encoding="UTF-8"?>
<svg version="1.1" xmlns="http://www.w3.org/2000/svg" width="1200" height="1200">
<path d="M0 0 C1.06369604 0.00436926 1.06369604 0.00436926 2.1488809 0.00882679 C2.89702541 0.00797237 3.64516991 0.00711794 4.41598547 0.00623763 C6.94187816 0.00458058 9.46770555 0.01010783 11.9935922 0.01555592 C13.79667243 0.01583777 15.59975277 0.0156801 17.40283293 0.01511341 C22.31378408 0.01482535 27.22471103 0.02072347 32.13565654 0.02768737 C37.2619608 0.03391947 42.38826557 0.03452459 47.51457304 0.03571278 C57.22914494 0.03882652 66.94370566 0.04704048 76.65827262 0.05706227 C87.71491586 0.06822208 98.77155962 0.07373352 109.82820708 0.0787577 C132.57922383 0.08922306 155.33023063 0.10682333 178.08123869 0.12908131 C178.08620391 1.32701014 178.08620391 1.32701014 178.09126943 2.54913956 C178.1727588 22.0495539 178.26493434 41.54989152 178.36876577 61.05020005 C178.41872609 70.48069307 178.4651698 79.91117813 178.50311369 89.34172779 C178.53622395 97.56865428 178.5761577 105.79551567 178.62402874 114.02236998 C178.64910613 118.37181483 178.67094091 122.72121754 178.68458265 127.07071453 C178.69757569 131.17882638 178.71980832 135.2867923 178.74862188 139.39482266 C178.75756501 140.88895659 178.76335608 142.38311392 178.76545233 143.87727314 C178.78805964 157.56456036 179.58935199 171.44152679 183.26873869 184.69158131 C183.48087003 185.47404225 183.69300138 186.25650318 183.91156095 187.06267506 C186.19704177 195.11356011 189.41698765 202.61983143 193.08123869 210.12908131 C193.788934 211.587011 193.788934 211.587011 194.51092619 213.07439381 C205.79770634 234.94651581 223.06603829 252.35355254 244.16717619 264.78923756 C244.79881681 265.231386 245.43045744 265.67353443 246.08123869 266.12908131 C246.08123869 266.78908131 246.08123869 267.44908131 246.08123869 268.12908131 C163.25123869 268.12908131 80.42123869 268.12908131 -4.91876131 268.12908131 C-5.86307283 265.29614677 -6.04400744 263.57277743 -6.04460245 260.6397453 C-6.0472102 259.71477242 -6.04981795 258.78979954 -6.05250472 257.83679718 C-6.050274 256.81900747 -6.04804327 255.80121777 -6.04574496 254.75258595 C-6.04730495 253.67267042 -6.04886494 252.59275488 -6.0504722 251.48011464 C-6.0544768 247.84339584 -6.05129463 244.20671842 -6.04815584 240.56999928 C-6.04951011 237.97022689 -6.05129018 235.3704547 -6.0534659 232.77068287 C-6.05791852 226.43203621 -6.05694947 220.09340136 -6.05405326 213.75475423 C-6.05179764 208.6056146 -6.0514874 203.45647828 -6.05257708 198.3073383 C-6.05273031 197.57533812 -6.05288354 196.84333795 -6.05304142 196.08915595 C-6.05336113 194.60227828 -6.05368535 193.11540061 -6.05401401 191.62852295 C-6.05686721 177.67840269 -6.05358407 163.728289 -6.04821365 149.77816983 C-6.04374388 137.79634146 -6.04452327 125.81452278 -6.04913241 113.83269459 C-6.05447777 99.93041442 -6.05659451 86.02814001 -6.05352014 72.12585896 C-6.05320158 70.64497024 -6.05288721 69.16408151 -6.05257708 67.68319279 C-6.0524228 66.95449335 -6.05226853 66.22579392 -6.05210958 65.47501268 C-6.05124444 60.32828679 -6.05270718 55.18156454 -6.05505663 50.03483921 C-6.05814569 43.11564928 -6.05596268 36.19647803 -6.05016237 29.27728993 C-6.048834 26.72986719 -6.04923019 24.18244293 -6.05142504 21.63502079 C-6.05413345 18.17386237 -6.05075925 14.71276392 -6.04574496 11.25160939 C-6.04797568 10.22935824 -6.0502064 9.20710709 -6.05250472 8.15387863 C-6.04989697 7.23412125 -6.04728922 6.31436386 -6.04460245 5.36673504 C-6.0444401 4.56677164 -6.04427775 3.76680824 -6.04411048 2.94260353 C-5.78073158 -0.86790035 -3.21458871 0.01000919 0 0 Z " fill="#020202" transform="translate(221.91876131296158,465.8709186911583)"/>
<path d="M0 0 C60.39 0 120.78 0 183 0 C183.94431151 2.83293454 184.12524612 4.55630388 184.12584114 7.48933601 C184.12844889 8.41430889 184.13105664 9.33928177 184.13374341 10.29228413 C184.13151268 11.31007384 184.12928196 12.32786354 184.12698364 13.37649536 C184.12854363 14.45641089 184.13010362 15.53632643 184.13171089 16.64896667 C184.13571548 20.28568547 184.13253332 23.92236289 184.12939453 27.55908203 C184.13074879 30.15885442 184.13252887 32.75862661 184.13470459 35.35839844 C184.13915721 41.6970451 184.13818816 48.03567994 184.13529195 54.37432708 C184.13303633 59.52346671 184.13272608 64.67260303 184.13381577 69.82174301 C184.133969 70.55374319 184.13412223 71.28574336 184.13428011 72.03992536 C184.13459982 73.52680303 184.13492403 75.01368069 184.1352527 76.50055836 C184.1381059 90.45067862 184.13482276 104.40079231 184.12945233 118.35091148 C184.12498257 130.33273985 184.12576196 142.31455853 184.13037109 154.29638672 C184.13571645 168.19866688 184.1378332 182.1009413 184.13475883 196.00322235 C184.13444027 197.48411107 184.1341259 198.96499979 184.13381577 200.44588852 C184.13366149 201.17458795 184.13350721 201.90328739 184.13334826 202.65406863 C184.13248313 207.80079452 184.13394586 212.94751677 184.13629532 218.0942421 C184.13938438 225.01343203 184.13720137 231.93260327 184.13140106 238.85179138 C184.13007269 241.39921412 184.13046888 243.94663838 184.13266373 246.49406052 C184.13537214 249.95521894 184.13199794 253.41631738 184.12698364 256.87747192 C184.12921436 257.89972307 184.13144509 258.92197422 184.13374341 259.97520268 C184.13113566 260.89496006 184.12852791 261.81471745 184.12584114 262.76234627 C184.12567879 263.56230967 184.12551644 264.36227307 184.12534916 265.18647778 C184 267 184 267 183 268 C180.64942792 268.09984374 178.32818473 268.13442764 175.97705078 268.12698364 C175.23369539 268.12854363 174.49034 268.13010362 173.72445869 268.13171089 C171.21472358 268.13572364 168.70504815 268.13253019 166.1953125 268.12939453 C164.40370651 268.13074845 162.61210079 268.13252833 160.82049561 268.13470459 C155.94047112 268.13928004 151.06046768 268.13748891 146.18044281 268.1343255 C141.08530112 268.13180248 135.99016129 268.13413928 130.89501953 268.13571167 C122.33691076 268.13753353 113.77881059 268.13512662 105.22070312 268.13037109 C95.31128562 268.12492844 85.4018887 268.12669109 75.49247169 268.1321975 C67.00078467 268.13672815 58.50910385 268.13737941 50.017416 268.13475883 C44.93854815 268.13319579 39.85968999 268.13300302 34.78082275 268.13629532 C30.00716433 268.13917334 25.23353255 268.13719962 20.45987701 268.13140106 C18.7026092 268.13007309 16.94533915 268.1304682 15.1880722 268.13266373 C12.79966707 268.1353738 10.41134874 268.13199589 8.02294922 268.12698364 C7.31839159 268.12921436 6.61383396 268.13144509 5.8879261 268.13374341 C1.11414986 268.11414986 1.11414986 268.11414986 0 267 C-0.09660712 265.57171382 -0.12371834 264.13866369 -0.12304783 262.70711422 C-0.12503888 261.77505655 -0.12702993 260.84299888 -0.12908131 259.88269705 C-0.12616847 258.84672669 -0.12325563 257.81075634 -0.12025452 256.74339294 C-0.12110894 255.65223004 -0.12196337 254.56106713 -0.12284368 253.43683869 C-0.1245017 249.75011252 -0.11897187 246.06343102 -0.11352539 242.37670898 C-0.11324356 239.74605307 -0.11340117 237.11539708 -0.1139679 234.48474121 C-0.11449332 228.80547554 -0.11134461 223.12622133 -0.10573006 217.44695854 C-0.09761753 209.23560688 -0.09500009 201.02426079 -0.09374207 192.81290556 C-0.09155116 179.49188507 -0.08489002 166.17087069 -0.07543945 152.84985352 C-0.06626634 139.90649445 -0.05919648 126.96313704 -0.05493164 114.01977539 C-0.05466364 113.21437008 -0.05439565 112.40896477 -0.05411953 111.57915324 C-0.05204022 105.28074919 -0.05008325 98.98234511 -0.04816496 92.68394101 C-0.0387241 61.7892884 -0.0186075 30.89465107 0 0 Z " fill="#020202" transform="translate(800,466)"/>
<path d="M0 0 C88.11 0 176.22 0 267 0 C267.020625 30.174375 267.04125 60.34875 267.0625 91.4375 C267.071604 100.98228271 267.08070801 110.52706543 267.09008789 120.36108398 C267.09460449 131.97277832 267.09460449 131.97277832 267.09544373 137.40028381 C267.09637934 141.2094124 267.10014246 145.0185272 267.10557556 148.82765198 C267.1124012 153.67682291 267.1144974 158.5259736 267.11307228 163.37514889 C267.11337056 165.16079354 267.11537316 166.94643885 267.11921513 168.73207939 C267.12414193 171.13219835 267.12300738 173.53223724 267.12025452 175.93235779 C267.12316718 176.64128709 267.12607985 177.35021639 267.12908077 178.0806284 C267.11412483 182.88587517 267.11412483 182.88587517 266 184 C264.57692835 184.09659172 263.14907742 184.12371842 261.72273159 184.12304783 C260.32987018 184.1260344 260.32987018 184.1260344 258.90887016 184.12908131 C257.87679076 184.12616847 256.84471135 184.12325563 255.78135681 184.12025452 C254.15073778 184.12153615 254.15073778 184.12153615 252.48717695 184.12284368 C248.81427026 184.12450169 245.1414084 184.11897188 241.46850586 184.11352539 C238.84770204 184.11324356 236.22689814 184.11340117 233.60609436 184.1139679 C227.9481096 184.11449332 222.29013633 184.11134462 216.63215446 184.10573006 C208.45157189 184.09761751 200.27099491 184.09500009 192.09040875 184.09374207 C178.81930255 184.09155116 165.54820248 184.08489003 152.27709961 184.07543945 C139.38224315 184.06626633 126.48738836 184.05919647 113.5925293 184.05493164 C112.79014149 184.05466364 111.98775368 184.05439565 111.16105109 184.05411953 C104.88624401 184.05204022 98.61143689 184.05008325 92.33662975 184.04816496 C61.55774754 184.03872411 30.77888067 184.0186075 0 184 C0 123.28 0 62.56 0 0 Z " fill="#010101" transform="translate(467,800)"/>
<path d="M0 0 C66.71253262 -0.04033135 66.71253262 -0.04033135 94.50585938 -0.04882812 C100.86808271 -0.05078614 107.23030602 -0.05280666 113.5925293 -0.05493164 C114.38998225 -0.05519539 115.18743521 -0.05545914 116.00905341 -0.05573088 C128.90039988 -0.06008577 141.7917419 -0.06797265 154.68308573 -0.0771528 C167.90310535 -0.08648881 181.12312265 -0.0920555 194.34314543 -0.09408849 C202.50725935 -0.09546383 210.67136074 -0.099815 218.8354708 -0.10791647 C225.08501907 -0.11380392 231.33455769 -0.1144591 237.58410835 -0.11310768 C240.155718 -0.11338422 242.7273281 -0.11539208 245.29893494 -0.11920547 C248.7930935 -0.12413547 252.28719714 -0.12300086 255.78135681 -0.12025452 C256.81343622 -0.12316736 257.84551562 -0.1260802 258.90887016 -0.12908131 C260.30173157 -0.12609474 260.30173157 -0.12609474 261.72273159 -0.12304783 C262.9342293 -0.12361741 262.9342293 -0.12361741 264.17020172 -0.1241985 C266 0 266 0 267 1 C267.09763945 3.36546882 267.12997502 5.70171532 267.12025452 8.06764221 C267.12111053 8.81397415 267.12196655 9.56030609 267.12284851 10.32925415 C267.12451367 12.85697765 267.11896401 15.384636 267.11352539 17.91235352 C267.1132193 19.74472775 267.11335213 21.5771021 267.11389065 23.40947628 C267.11411721 28.3342607 267.10830461 33.25902103 267.10128021 38.18379974 C267.09560209 42.79827453 267.09531801 47.41274334 267.09460449 52.02722168 C267.08934882 65.53898434 267.07538778 79.05074247 267.0625 92.5625 C267.041875 122.736875 267.02125 152.91125 267 184 C178.89 184 90.78 184 0 184 C0 123.28 0 62.56 0 0 Z " fill="#010101" transform="translate(467,216)"/>
<path d="M0 0 C0.68529785 -0.00145523 1.3705957 -0.00291046 2.07666016 -0.00440979 C4.31157861 -0.00666375 6.54634664 -0.00036993 8.78125 0.0078125 C9.53833252 0.00969574 10.29541504 0.01157898 11.07543945 0.01351929 C57.84245245 0.15103272 98.3302476 11.24791369 132.40625 44.8203125 C171.56639667 84.27836358 176.28125 130.15236291 176.28125 184.1328125 C115.56125 184.1328125 54.84125 184.1328125 -7.71875 184.1328125 C-7.739375 153.9584375 -7.76 123.7840625 -7.78125 92.6953125 C-7.790354 83.15052979 -7.79945801 73.60574707 -7.80883789 63.77172852 C-7.81335449 52.16003418 -7.81335449 52.16003418 -7.81419373 46.73252869 C-7.81512934 42.9234001 -7.81889246 39.1142853 -7.82432556 35.30516052 C-7.8311512 30.45598959 -7.8332474 25.6068389 -7.83182228 20.75766361 C-7.83212056 18.97201896 -7.83412316 17.18637365 -7.83796513 15.40073311 C-7.84289193 13.00061415 -7.84175738 10.60057526 -7.83900452 8.20045471 C-7.84191718 7.49152541 -7.84482985 6.78259611 -7.84783077 6.0521841 C-7.82691817 -0.66689708 -6.47805692 0.00575754 0 0 Z " fill="#010101" transform="translate(807.71875,215.8671875)"/>
<path d="M0 0 C60.72 0 121.44 0 184 0 C184 57.08243342 177.92200461 100.56758753 137.25 142.125 C104.26926734 174.94331045 61.64138928 184.13291618 16.625 184.1875 C15.46987411 184.18926743 15.46987411 184.18926743 14.29141235 184.19107056 C12.10302415 184.19069017 9.91490514 184.18152439 7.7265625 184.16796875 C6.45377441 184.16047607 5.18098633 184.1529834 3.86962891 184.14526367 C1 184 1 184 0 183 C-0.09763945 180.63453118 -0.12997502 178.29828468 -0.12025452 175.93235779 C-0.12111053 175.18602585 -0.12196655 174.43969391 -0.12284851 173.67074585 C-0.12451367 171.14302235 -0.11896401 168.615364 -0.11352539 166.08764648 C-0.1132193 164.25527225 -0.11335213 162.4228979 -0.11389065 160.59052372 C-0.11411721 155.6657393 -0.10830461 150.74097897 -0.10128021 145.81620026 C-0.09560209 141.20172547 -0.09531801 136.58725666 -0.09460449 131.97277832 C-0.08934882 118.46101566 -0.07538778 104.94925753 -0.0625 91.4375 C-0.041875 61.263125 -0.02125 31.08875 0 0 Z " fill="#010101" transform="translate(800,800)"/>
<path d="M0 0 C0 60.72 0 121.44 0 184 C-60.72 184 -121.44 184 -184 184 C-184 130.19081831 -179.75819877 85.99376711 -141.42431641 46.47558594 C-140.11327953 45.11735712 -138.82686442 43.73547548 -137.54296875 42.3515625 C-100.5887344 3.49752506 -50.66583432 0 0 0 Z " fill="#000000" transform="translate(400,216)"/>
<path d="M0 0 C60.72 0 121.44 0 184 0 C184 60.72 184 121.44 184 184 C118.4028436 184 118.4028436 184 90 171 C89.36288086 170.71286133 88.72576172 170.42572266 88.06933594 170.12988281 C72.33028701 162.96167983 58.73302319 153.4719338 46.40039062 141.36962891 C45.13217995 140.12927642 43.84076692 138.91275751 42.546875 137.69921875 C14.17901123 110.57120916 2.38862542 73.21800665 0 35 C0 23.45 0 11.9 0 0 Z " fill="#010101" transform="translate(216,800)"/>
<path d="M0 0 C43.89 0 87.78 0 133 0 C133.1209091 39.89104765 133.1209091 39.89104765 133.14648438 56.64453125 C133.16426512 68.19909676 133.18513518 79.7535965 133.22631836 91.30810547 C133.25630133 99.7242816 133.27559407 108.14040422 133.28226548 116.55663228 C133.28616271 121.00938752 133.29526654 125.46198974 133.31719017 129.91469574 C133.33769618 134.11387876 133.34380557 138.31284708 133.33932304 142.51207542 C133.34014198 144.04542651 133.34602304 145.57878549 133.35761642 147.11209297 C133.44422571 159.16777367 132.03153695 170.15557515 126.5 181 C126.16033203 181.6707959 125.82066406 182.3415918 125.47070312 183.03271484 C117.2703234 198.39929094 102.83398185 209.25549359 86.49780273 214.8581543 C79.83203813 216.85675519 73.62812989 217.51226336 66.6875 217.4375 C65.68348145 217.42920166 64.67946289 217.42090332 63.64501953 217.41235352 C46.16482377 217.01680391 31.14245449 210.16081499 18.7265625 197.890625 C4.43509227 182.73920957 -0.49373621 166.31730613 -0.34057617 145.88012695 C-0.33972832 144.28246578 -0.34020813 142.68480344 -0.34190369 141.08714294 C-0.34275889 136.78204212 -0.3252107 132.47719578 -0.30418181 128.17215371 C-0.28533525 123.6611845 -0.28365832 119.15020844 -0.28010559 114.63920593 C-0.27080845 106.11135152 -0.24622646 97.58361349 -0.21605712 89.05581015 C-0.17614549 77.52205001 -0.16003939 65.9882577 -0.14255047 54.45444584 C-0.11440351 36.30287684 -0.05461852 18.15155336 0 0 Z " fill="#010101" transform="translate(467,466)"/>
<path d="M0 0 C8.5880572 -0.02312635 17.17610149 -0.04091658 25.76418209 -0.05181217 C29.751572 -0.05704036 33.73894067 -0.06413684 37.72631836 -0.07543945 C41.57125114 -0.08627061 45.41616345 -0.09227732 49.26111031 -0.09487724 C50.73118983 -0.09673108 52.20126818 -0.10035091 53.67133904 -0.10573006 C55.72354467 -0.11294355 57.77566467 -0.11399081 59.82788086 -0.11352539 C60.99814316 -0.115746 62.16840546 -0.11796661 63.37413025 -0.12025452 C66 0 66 0 67 1 C67.09748171 2.42210522 67.12555441 3.84903276 67.12584114 5.2744751 C67.12844889 6.20243267 67.13105664 7.13039024 67.13374341 8.08646774 C67.13151268 9.11786503 67.12928196 10.14926231 67.12698364 11.21191406 C67.12854363 12.29828785 67.13010362 13.38466164 67.13171089 14.50395584 C67.13572602 18.17452569 67.13252926 21.84505478 67.12939453 25.515625 C67.13074834 28.13480656 67.13252816 30.75398794 67.13470459 33.37316895 C67.13916295 39.76690095 67.13818553 46.16062124 67.13529195 52.55435371 C67.13303817 57.7483543 67.13272528 62.9423516 67.13381577 68.13635254 C67.133969 68.87417442 67.13412223 69.61199629 67.13428011 70.37217641 C67.13459982 71.87081115 67.13492403 73.36944588 67.1352527 74.86808062 C67.13810768 88.93741526 67.13482018 103.0067434 67.12945233 117.07607698 C67.12498428 129.16139833 67.1257602 141.24671008 67.13037109 153.33203125 C67.13571653 167.34929437 67.13783299 181.36655177 67.13475883 195.38381577 C67.13444026 196.877093 67.13412589 198.37037023 67.13381577 199.86364746 C67.13366149 200.59846509 67.13350721 201.33328272 67.13334826 202.09036756 C67.13248302 207.281153 67.13394615 212.47193484 67.13629532 217.66271973 C67.13938459 224.6426205 67.13720106 231.62250276 67.13140106 238.60240173 C67.13007267 241.17239858 67.1304689 243.74239694 67.13266373 246.31239319 C67.13537214 249.80431187 67.1319979 253.2961711 67.12698364 256.78808594 C67.12921436 257.81948322 67.13144509 258.85088051 67.13374341 259.91353226 C67.13113566 260.84148983 67.12852791 261.7694474 67.12584114 262.7255249 C67.12567879 263.53264797 67.12551644 264.33977104 67.12534916 265.17135239 C67 267 67 267 66 268 C64.26640402 268.09627113 62.52885354 268.12187568 60.79258728 268.12025452 C59.66371597 268.12162918 58.53484467 268.12300385 57.37176514 268.12442017 C55.49765961 268.11902725 55.49765961 268.11902725 53.58569336 268.11352539 C52.27856888 268.11367142 50.9714444 268.11381744 49.62471008 268.1139679 C46.02982901 268.11425586 42.43498103 268.10835928 38.84010768 268.10139394 C35.08713748 268.09516026 31.3341666 268.09455659 27.58119202 268.09336853 C20.46969174 268.09025526 13.35820675 268.08204192 6.24671322 268.07201904 C-1.84747066 268.06085778 -9.94165526 268.05534742 -18.03584492 268.05032361 C-34.69057225 268.03985931 -51.34528418 268.02225994 -68 268 C-66.67596977 264.02790931 -64.23773728 263.08880595 -60.8125 261.0625 C-43.55932189 250.39491281 -30.56361003 236.20396671 -20 219 C-19.63487305 218.40590332 -19.26974609 217.81180664 -18.89355469 217.19970703 C-4.32224449 192.97473565 -0.90809398 166.05761353 -0.79467773 138.27392578 C-0.7850694 136.75463615 -0.77505774 135.23534902 -0.76467896 133.71606445 C-0.7379433 129.63852739 -0.71676673 125.56097913 -0.69667697 121.48340464 C-0.67462105 117.2046451 -0.64732946 112.92591884 -0.62062073 108.64718628 C-0.57095619 100.5657471 -0.52592144 92.48428919 -0.48259836 84.40281379 C-0.43299989 75.1934525 -0.37816654 65.98412463 -0.32291877 56.77479577 C-0.2095022 37.84989496 -0.10257736 18.92496251 0 0 Z " fill="#040404" transform="translate(667,466)"/>
<path d="M0 0 C3.5875213 1.33250791 6.8364623 2.830717 10 5 C10 5.66 10 6.32 10 7 C8.56344146 7.08131463 7.1255517 7.13933559 5.6875 7.1875 C4.48673828 7.23970703 4.48673828 7.23970703 3.26171875 7.29296875 C0.52148416 6.93801608 -0.29171079 6.10633718 -2 4 C-1.34 3.67 -0.68 3.34 0 3 C0 2.01 0 1.02 0 0 Z " fill="#2E2E2E" transform="translate(458,727)"/>
<path d="M0 0 C0.66 0.33 1.32 0.66 2 1 C1.071875 1.8971875 1.071875 1.8971875 0.125 2.8125 C-2.13676954 5.00811144 -2.13676954 5.00811144 -4 8 C-4.66 8 -5.32 8 -6 8 C-6.33 8.99 -6.66 9.98 -7 11 C-7.33 9.35 -7.66 7.7 -8 6 C-5.36 4.02 -2.72 2.04 0 0 Z " fill="#222222" transform="translate(285,240)"/>
<path d="M0 0 C0.99 0.33 1.98 0.66 3 1 C2.07347299 2.17539996 1.13336613 3.34010577 0.1875 4.5 C-0.33457031 5.1496875 -0.85664062 5.799375 -1.39453125 6.46875 C-3 8 -3 8 -6 8 C-4.55746343 4.63408134 -2.66735273 2.48952921 0 0 Z " fill="#0C0C0C" transform="translate(942,932)"/>
<path d="M0 0 C0 1.32 0 2.64 0 4 C-3.4932521 6.32883474 -4.92922578 6 -9 6 C-7.8803014 4.99406757 -6.7540588 3.9954151 -5.625 3 C-4.68527344 2.1646875 -4.68527344 2.1646875 -3.7265625 1.3125 C-2 0 -2 0 0 0 Z " fill="#202020" transform="translate(627,713)"/>
<path d="M0 0 C0.99 0.33 1.98 0.66 3 1 C2.25 2.9375 2.25 2.9375 1 5 C-1.125 5.75 -1.125 5.75 -3 6 C-3.66 5.01 -4.32 4.02 -5 3 C-2.6875 1.4375 -2.6875 1.4375 0 0 Z " fill="#202020" transform="translate(299,232)"/>
</svg>
