<?xml version="1.0" encoding="UTF-8"?>
<svg version="1.1" xmlns="http://www.w3.org/2000/svg" width="25" height="33">
<path d="M0 0 C8.25 0 16.5 0 25 0 C25 10.89 25 21.78 25 33 C16.75 33 8.5 33 0 33 C0 22.11 0 11.22 0 0 Z " fill="#3B3B3B" transform="translate(0,0)"/>
<path d="M0 0 C6.6 0 13.2 0 20 0 C20 3.96 20 7.92 20 12 C19.34 12 18.68 12 18 12 C18 8.7 18 5.4 18 2 C12.72 2 7.44 2 2 2 C2 8.6 2 15.2 2 22 C5.63 22 9.26 22 13 22 C13 22.66 13 23.32 13 24 C8.71 24 4.42 24 0 24 C0 16.08 0 8.16 0 0 Z " fill="#E2E2E2" transform="translate(2,4)"/>
<path d="M0 0 C1.32 0.33 2.64 0.66 4 1 C2.94124926 4.40312738 1.99097846 7.01353231 0 10 C-0.99 10 -1.98 10 -3 10 C-2.49287967 6.28111761 -1.88391785 3.26545761 0 0 Z " fill="#D5D5D5" transform="translate(20,18)"/>
</svg>
