<?xml version="1.0" encoding="UTF-8"?>
<svg version="1.1" xmlns="http://www.w3.org/2000/svg" width="34" height="35">
<path d="M0 0 C11.22 0 22.44 0 34 0 C34 11.55 34 23.1 34 35 C22.78 35 11.56 35 0 35 C0 23.45 0 11.9 0 0 Z " fill="#262626" transform="translate(0,0)"/>
<path d="M0 0 C0 0.66 0 1.32 0 2 C-0.66 2 -1.32 2 -2 2 C-2 2.99 -2 3.98 -2 5 C-2.66 5 -3.32 5 -4 5 C-4 7.31 -4 9.62 -4 12 C-3.34 12 -2.68 12 -2 12 C-2 12.99 -2 13.98 -2 15 C-1.34 15 -0.68 15 0 15 C0 16.65 0 18.3 0 20 C-7.92 20 -15.84 20 -24 20 C-24 18.35 -24 16.7 -24 15 C-23.34 15 -22.68 15 -22 15 C-22 14.01 -22 13.02 -22 12 C-21.34 12 -20.68 12 -20 12 C-20 9.69 -20 7.38 -20 5 C-20.66 5 -21.32 5 -22 5 C-22 4.01 -22 3.02 -22 2 C-22.66 2 -23.32 2 -24 2 C-24 1.34 -24 0.68 -24 0 C-15.24866116 -4.50600851 -8.73124798 -4.66463933 0 0 Z " fill="#B7B7B7" transform="translate(30,11)"/>
<path d="M0 0 C0 0.99 0 1.98 0 3 C-2.64 3 -5.28 3 -8 3 C-8 2.34 -8 1.68 -8 1 C-8.66 0.67 -9.32 0.34 -10 0 C-6.30581799 -1.231394 -3.7943739 -0.64432764 0 0 Z " fill="#979797" transform="translate(23,8)"/>
</svg>
