<?xml version="1.0" encoding="UTF-8"?>
<svg version="1.1" xmlns="http://www.w3.org/2000/svg" width="32" height="35">
<path d="M0 0 C10.56 0 21.12 0 32 0 C32 11.55 32 23.1 32 35 C21.44 35 10.88 35 0 35 C0 23.45 0 11.9 0 0 Z " fill="#272727" transform="translate(0,0)"/>
<path d="M0 0 C2.375 1.625 2.375 1.625 4 4 C4.50299316 8.10777749 4.32749345 9.50875983 2 13 C2.598125 13.226875 3.19625 13.45375 3.8125 13.6875 C6.63240835 15.37944501 7.59597086 17.05153881 9 20 C9 21.32 9 22.64 9 24 C8.34 24 7.68 24 7 24 C6.608125 23.071875 6.21625 22.14375 5.8125 21.1875 C3.81821685 17.68031238 2.68282857 16.54164917 -1 15 C-4.04253508 14.41654524 -4.04253508 14.41654524 -7 15 C-10.33188599 17.49891449 -11.69659855 20.08979564 -13 24 C-13.66 24 -14.32 24 -15 24 C-13.80805531 18.47371099 -12.4008703 15.82180842 -8 12 C-8.66 11.34 -9.32 10.68 -10 10 C-10.46879799 6.40588208 -10.44361448 4.64835963 -8.375 1.625 C-5.28813568 -0.48706506 -3.6717087 -0.61195145 0 0 Z " fill="#CECECE" transform="translate(18,3)"/>
<path d="M0 0 C2.4375 0.8125 2.4375 0.8125 4.4375 2.8125 C4.10778521 6.10964793 3.8148161 7.4351839 1.4375 9.8125 C-1.6875 9.4375 -1.6875 9.4375 -4.5625 8.8125 C-5.89091008 3.37809513 -5.89091008 3.37809513 -4.4375 0.875 C-2.5625 -0.1875 -2.5625 -0.1875 0 0 Z " fill="#2E2E2E" transform="translate(15.5625,5.1875)"/>
<path d="M0 0 C0.99 0 1.98 0 3 0 C5.49977543 3.33303391 6 4.73303602 6 9 C5.34 9 4.68 9 4 9 C2.47551369 6.0173094 1.06059933 3.181798 0 0 Z " fill="#BDBDBD" transform="translate(21,18)"/>
<path d="M0 0 C0.66 0 1.32 0 2 0 C1.71125 0.556875 1.4225 1.11375 1.125 1.6875 C-0.0413253 4.08494645 -1.0339881 6.51596939 -2 9 C-2.66 9 -3.32 9 -4 9 C-2.25 2.25 -2.25 2.25 0 0 Z " fill="#C9C9C9" transform="translate(7,18)"/>
</svg>
