<svg xmlns:xlink="http://www.w3.org/1999/xlink" xmlns="http://www.w3.org/2000/svg" class="MuiSvgIconroot-0-2-22 makeStylesdirectionalIcon-0-2-21 makeStylesstrokeIcon-0-2-20 makeStylestoggle-0-2-314" focusable="false" viewBox="0 0 24 24" aria-hidden="true" role="presentation" width="32"  height="32" ><path fill="#262626" stroke="#000000" fill-rule="evenodd" d="M0 1c0-.5523.4477-1 1-1h4c.5523 0 1 .4477 1 1v4c0 .5523-.4477 1-1 1H1c-.5523 0-1-.4477-1-1V1zm2 1v2h2V2H2zM0 19c0-.5523.4477-1 1-1h4c.5523 0 1 .4477 1 1v4c0 .5523-.4477 1-1 1H1c-.5523 0-1-.4477-1-1v-4zm2 1v2h2v-2H2zM1 9c-.5523 0-1 .4477-1 1v4c0 .5523.4477 1 1 1h4c.5523 0 1-.4477 1-1v-4c0-.5523-.4477-1-1-1H1zm1 4v-2h2v2H2zM18 1c0-.5523.4477-1 1-1h4c.5523 0 1 .4477 1 1v4c0 .5523-.4477 1-1 1h-4c-.5523 0-1-.4477-1-1V1zm2 1v2h2V2h-2zM19 18c-.5523 0-1 .4477-1 1v4c0 .5523.4477 1 1 1h4c.5523 0 1-.4477 1-1v-4c0-.5523-.4477-1-1-1h-4zm1 4v-2h2v2h-2zM18 10c0-.5523.4477-1 1-1h4c.5523 0 1 .4477 1 1v4c0 .5523-.4477 1-1 1h-4c-.5523 0-1-.4477-1-1v-4zm2 1v2h2v-2h-2zM10 0c-.5523 0-1 .4477-1 1v4c0 .5523.4477 1 1 1h4c.5523 0 1-.4477 1-1V1c0-.5523-.4477-1-1-1h-4zm1 4V2h2v2h-2zM9 19c0-.5523.4477-1 1-1h4c.5523 0 1 .4477 1 1v4c0 .5523-.4477 1-1 1h-4c-.5523 0-1-.4477-1-1v-4zm2 1v2h2v-2h-2zM10 9c-.5523 0-1 .4477-1 1v4c0 .5523.4477 1 1 1h4c.5523 0 1-.4477 1-1v-4c0-.5523-.4477-1-1-1h-4zm1 4v-2h2v2h-2z" clip-rule="evenodd" stroke-opacity="0"></path></svg>