<?xml version="1.0" encoding="UTF-8"?>
<svg version="1.1" xmlns="http://www.w3.org/2000/svg" width="31" height="33">
<path d="M0 0 C10.23 0 20.46 0 31 0 C31 10.89 31 21.78 31 33 C20.77 33 10.54 33 0 33 C0 22.11 0 11.22 0 0 Z " fill="#262626" transform="translate(0,0)"/>
<path d="M0 0 C1.32 0.66 2.64 1.32 4 2 C4 7.30479934 2.4637943 8.18982627 -1 12 C-0.34 12 0.32 12 1 12 C1 15.3 1 18.6 1 22 C-5.6 22 -12.2 22 -19 22 C-19 15.4 -19 8.8 -19 2 C-13.33333333 2 -7.66666667 2 -2 2 C-1.34 1.34 -0.68 0.68 0 0 Z " fill="#282828" transform="translate(23,5)"/>
<path d="M0 0 C4.62 0 9.24 0 14 0 C14 0.66 14 1.32 14 2 C10.04 2 6.08 2 2 2 C2 7.28 2 12.56 2 18 C7.28 18 12.56 18 18 18 C18 15.36 18 12.72 18 10 C18.66 10 19.32 10 20 10 C20 13.3 20 16.6 20 20 C13.4 20 6.8 20 0 20 C0 13.4 0 6.8 0 0 Z " fill="#E2E2E2" transform="translate(4,7)"/>
<path d="M0 0 C1.32 0.66 2.64 1.32 4 2 C4 6 4 6 2.8984375 7.66796875 C-0.58137716 11.13886081 -2.87743884 12.75606852 -8 13 C-8.36795695 9.7171341 -8.3231932 8.41336988 -6.25 5.76171875 C-5.13625 4.73498047 -5.13625 4.73498047 -4 3.6875 C-3.2575 2.99011719 -2.515 2.29273438 -1.75 1.57421875 C-1.1725 1.05472656 -0.595 0.53523437 0 0 Z " fill="#C1C1C1" transform="translate(23,5)"/>
<path d="M0 0 C1.32 0.66 2.64 1.32 4 2 C4 6 4 6 2.8984375 7.66796875 C-0.58137716 11.13886081 -2.87743884 12.75606852 -8 13 C-7.67 11.68 -7.34 10.36 -7 9 C-6.67 9.66 -6.34 10.32 -6 11 C-4.84775972 10.07038578 -3.70340824 9.1309875 -2.5625 8.1875 C-1.92441406 7.66542969 -1.28632813 7.14335937 -0.62890625 6.60546875 C1.2548275 4.99165589 1.2548275 4.99165589 2 2 C1.01 1.67 0.02 1.34 -1 1 C-0.67 0.67 -0.34 0.34 0 0 Z " fill="#D3D3D3" transform="translate(23,5)"/>
<path d="M0 0 C-1.28519565 2.86697492 -2.57129254 4.97607712 -5 7 C-5.66 7 -6.32 7 -7 7 C-3.86206897 0 -3.86206897 0 0 0 Z " fill="#2E2E2E" transform="translate(25,8)"/>
</svg>
