<?xml version="1.0" encoding="UTF-8"?>
<svg xmlns="http://www.w3.org/2000/svg" width="24" height="24" viewBox="0 0 24 24" fill="none" stroke="#6366f1" stroke-width="2" stroke-linecap="round" stroke-linejoin="round">
  <path d="M14 2H6a2 2 0 0 0-2 2v16a2 2 0 0 0 2 2h12a2 2 0 0 0 2-2V8z"></path>
  <polyline points="14 2 14 8 20 8"></polyline>
  <path d="M10 13a1 1 0 0 0 0 2h.01a1 1 0 0 0 0-2z"></path>
  <path d="M7 13a1 1 0 0 0 0 2h.01a1 1 0 0 0 0-2z"></path>
  <path d="M13 13a1 1 0 0 0 0 2h.01a1 1 0 0 0 0-2z"></path>
  <path d="M16 13a1 1 0 0 0 0 2h.01a1 1 0 0 0 0-2z"></path>
  <path d="M7 17a1 1 0 0 0 0 2h.01a1 1 0 0 0 0-2z"></path>
  <path d="M10 17a1 1 0 0 0 0 2h.01a1 1 0 0 0 0-2z"></path>
  <path d="M13 17a1 1 0 0 0 0 2h.01a1 1 0 0 0 0-2z"></path>
</svg>