<?xml version="1.0" encoding="UTF-8"?>
<svg version="1.1" xmlns="http://www.w3.org/2000/svg" width="36" height="30">
<path d="M0 0 C11.88 0 23.76 0 36 0 C36 9.9 36 19.8 36 30 C24.12 30 12.24 30 0 30 C0 20.1 0 10.2 0 0 Z " fill="#DADADA" transform="translate(0,0)"/>
<path d="M0 0 C11.88 0 23.76 0 36 0 C36 9.9 36 19.8 36 30 C24.12 30 12.24 30 0 30 C0 20.1 0 10.2 0 0 Z M9 2 C9 2.66 9 3.32 9 4 C8.01 4 7.02 4 6 4 C6 11.26 6 18.52 6 26 C13.92 26 21.84 26 30 26 C30 18.74 30 11.48 30 4 C29.01 4 28.02 4 27 4 C27 3.34 27 2.68 27 2 C24.69 2 22.38 2 20 2 C20 2.66 20 3.32 20 4 C18.68 4 17.36 4 16 4 C16 3.34 16 2.68 16 2 C13.69 2 11.38 2 9 2 Z " fill="#262626" transform="translate(0,0)"/>
<path d="M0 0 C6.6 0 13.2 0 20 0 C20 3.96 20 7.92 20 12 C13.4 12 6.8 12 0 12 C0 8.04 0 4.08 0 0 Z " fill="#5A5A5A" transform="translate(8,12)"/>
<path d="M0 0 C0.33 0.66 0.66 1.32 1 2 C3.31 2 5.62 2 8 2 C8 1.34 8 0.68 8 0 C9.32 0 10.64 0 12 0 C12 0.66 12 1.32 12 2 C14.31 2 16.62 2 19 2 C19.33 1.34 19.66 0.68 20 0 C20 1.32 20 2.64 20 4 C13.4 4 6.8 4 0 4 C0 2.68 0 1.36 0 0 Z " fill="#262626" transform="translate(8,6)"/>
</svg>
