<?xml version="1.0" encoding="UTF-8"?>
<svg version="1.1" xmlns="http://www.w3.org/2000/svg" width="33" height="34">
<path d="M0 0 C10.89 0 21.78 0 33 0 C33 11.22 33 22.44 33 34 C22.11 34 11.22 34 0 34 C0 22.78 0 11.56 0 0 Z " fill="#272727" transform="translate(0,0)"/>
<path d="M0 0 C3.3258409 2.062783 6.23502468 4.47004936 8 8 C8.24716207 12.2944409 8.11168002 16.35664692 5.65234375 19.9921875 C2.59006197 22.90798199 0.0112658 24.36558384 -4.25 24.5625 C-8 24 -8 24 -10 22.5 C-10.33 22.005 -10.66 21.51 -11 21 C-9.783125 21.04125 -8.56625 21.0825 -7.3125 21.125 C-3.75704677 21.10615484 -1.11638314 20.86982988 2 19 C4.63769688 15.92268698 5.01587314 14.46032106 4.875 10.375 C3.99120664 6.96608277 3.67422698 6.06919825 1 4 C-1.16693762 3.38874587 -1.16693762 3.38874587 -3.5 3.25 C-4.66015625 3.13398438 -4.66015625 3.13398438 -5.84375 3.015625 C-8.18609043 2.88253359 -8.18609043 2.88253359 -11 4 C-10.67 3.01 -10.34 2.02 -10 1 C-6.7374887 -0.63125565 -3.5120384 -0.68851113 0 0 Z " fill="#C1C1C1" transform="translate(21,5)"/>
<path d="M0 0 C-0.33 0.99 -0.66 1.98 -1 3 C2.63 3.33 6.26 3.66 10 4 C10 4.66 10 5.32 10 6 C4.555 6.495 4.555 6.495 -1 7 C-0.67 7.99 -0.34 8.98 0 10 C-2.62187494 8.95125002 -3.79371361 8.35068687 -5.25 5.875 C-5.4975 5.25625 -5.745 4.6375 -6 4 C-2.25 0 -2.25 0 0 0 Z " fill="#D6D6D6" transform="translate(11,12)"/>
<path d="M0 0 C2.65381294 1.70780082 4.82790509 3.71930035 7 6 C6.67 7.65 6.34 9.3 6 11 C5.731875 10.401875 5.46375 9.80375 5.1875 9.1875 C3.96364827 6.93303629 2.97101175 5.6282271 1 4 C-1.16693762 3.38874587 -1.16693762 3.38874587 -3.5 3.25 C-4.66015625 3.13398438 -4.66015625 3.13398438 -5.84375 3.015625 C-8.18609043 2.88253359 -8.18609043 2.88253359 -11 4 C-10.67 3.01 -10.34 2.02 -10 1 C-6.74072704 -0.62963648 -3.50804089 -0.69908894 0 0 Z " fill="#BEBEBE" transform="translate(21,5)"/>
<path d="M0 0 C2.97 0.33 5.94 0.66 9 1 C8.67 1.66 8.34 2.32 8 3 C5.6568787 2.74438677 3.32156597 2.40729228 1 2 C0.67 1.34 0.34 0.68 0 0 Z " fill="#CECECE" transform="translate(10,26)"/>
</svg>
