<svg xmlns:xlink="http://www.w3.org/1999/xlink" xmlns="http://www.w3.org/2000/svg" class="MuiSvgIconroot-0-2-22 makeStylesdirectionalIcon-0-2-21 makeStylesstrokeIcon-0-2-20" focusable="false" viewBox="0 0 24 24" aria-hidden="true" role="presentation" width="24"  height="24" ><path fill="#E5E5E5" stroke="#000000" fill-rule="evenodd" d="M1 3c-.5523 0-1 .4477-1 1v16c0 .5523.4477 1 1 1h22c.5523 0 1-.4477 1-1V4c0-.5523-.4477-1-1-1H1zm1 14.6093l5.9878-5.9053L2 6.2606v11.3487zm7.4698-4.5579L3.4381 19h17.1831c-.9709-.9686-1.8558-1.813-2.7194-2.6348l-.1643-.1563c-1.0608-1.0092-2.0994-1.9974-3.2234-3.1429l-1.8414 1.674a1.0002 1.0002 0 01-1.3454 0l-1.8575-1.6886zM22 6.2606v11.2899c-.976-.9727-1.8632-1.8194-2.7195-2.6342l-.1566-.149c-1.0479-.997-2.0508-1.9511-3.1289-3.0476L22 6.2606zM3.5866 5L12 12.6486 20.4134 5H3.5866z" clip-rule="evenodd" stroke-opacity="0"></path></svg>